<mxfile host="app.diagrams.net" modified="2023-08-28T15:44:19.683Z" agent="Mozilla/5.0 (Windows NT 10.0; Win64; x64) AppleWebKit/537.36 (KHTML, like Gecko) Chrome/116.0.0.0 Safari/537.36" version="21.6.9" etag="PnSn_4ROC0e1oqCC9BOr" type="github">
  <diagram name="Page-1" id="2A2KY8i0PtstEdzV2PfX">
    <mxGraphModel>
      <root>
        <mxCell id="0" />
        <mxCell id="1" parent="0" />
      </root>
    </mxGraphModel>
  </diagram>
</mxfile>
